# xmcd CD database file
#
# Track frame offsets:
#	150
#	12742
#	23834
#	38684
#	51095
#	64536
#	77298
#	89280
#	101259
#	115315
#	128277
#	142891
#	157082
#	171747
#	182800
#	196833
#	208406
#	220985
#	233725
#	247049
#	260343
#
# Disc length: 3661 seconds
#
# Revision: 3
# Processed by: cddbd v1.5.2PL0 Copyright (c) Steve Scherf et al.
# Submitted via: CDex 1.73
#
DISCID=200e4b15
DTITLE=Various Artist - Jazz In The Charts - CD 030/100 (1937)
DYEAR=1937
DGENRE=Jazz
TTITLE0=I'm in a Dancing Mood - Tommy Dorsey and His Orchestra - Vocals Jack Leonard
TTITLE1=There's Frost on the Moon - Tommy Dorsey and His Orchestra - Vocals Edythe Wright
TTITLE2=Pennies From Heaven - Teddy Wilson and His Orchestra - Vocals Billie Holiday
TTITLE3=Love and Learn - Artie Shaw and His Orchestra - Vocals Peg La Centra
TTITLE4=A Thouand Dreams of You - Fats Waller and His Rhythm
TTITLE5=My Last Affair (This Is) - Jimmie Lunceford and His Orchestra - Vocals Dan Grissom
TTITLE6=When My Dreamboat Comes Home - Henry "Red" Allen and His Orchestra
TTITLE7=Here's Love in Your Eyes - Hwenry "Red" Allen and His Orchestra
TTITLE8=Goodnight My Love - Benny Goodman and His Orchestra - Vocals Ella Fitzgerald
TTITLE9=Where the Lazy River Goes by - Teddy Wilson and His Orchestra - Vocals Midge Williams
TTITLE10=What Will I Tell My Heart? - Andy Kirk and His Twelve Clouds Of Joy - Vocals Pha Terrell
TTITLE11=If My Heart Could Only Talk - Tommy Dorsey and His Orchestra - Vocals Jack Leonard
TTITLE12=Smoke Dreams - Benny Goodman and His Orchestra - Vocals Helen Ward
TTITLE13=This Year's Kisses - Benny Goodman and His Orchestra - Vocals Margaret McCrae
TTITLE14=The Goose Hangs High - Louis Prima and his New Orleans Gang
TTITLE15=Please Keep Me In Your Dreams - Fats Waller and His Rhythm
TTITLE16=Gee! But You're Swell - Benny Goodman and His Orchestra - Vocals Helen Ward
TTITLE17=Never Should Have Told You - Benny Goodman and His Orchestra - Vocals Margaret McCrae
TTITLE18=I've Got My Love to Keep Me Warm - Red Norvo and His Orchestra - Vocals Mildred Bailey
TTITLE19=Who's Afraid of Love? - Fats Waller and His Rhythm
TTITLE20=Tea for Two - Teddy Wilson and His Orchestra
EXTD=YEAR: 1937
EXTT0=
EXTT1=
EXTT2=
EXTT3=
EXTT4=
EXTT5=
EXTT6=
EXTT7=
EXTT8=
EXTT9=
EXTT10=
EXTT11=
EXTT12=
EXTT13=
EXTT14=
EXTT15=
EXTT16=
EXTT17=
EXTT18=
EXTT19=
EXTT20=
PLAYORDER=
